<svg xmlns="http://www.w3.org/2000/svg" width="1280" height="720" viewBox="0 0 1280 720"><rect width="1280" height="720" fill="#777777"/><path fill="#dddddd" d="M501.03999999999996 338.4Q491.84 338.4 486.55999999999995 344.56Q481.28 350.72 481.28 361.44Q481.28 372.08 486.19999999999993 378.28Q491.11999999999995 384.48 500.96 384.48Q504.71999999999997 384.48 508.0799999999999 383.84000000000003Q511.43999999999994 383.2 514.64 382.24V388.48Q511.43999999999994 389.68 508.03999999999996 390.24Q504.64 390.8 499.91999999999996 390.8Q491.19999999999993 390.8 485.35999999999996 387.20000000000005Q479.52 383.6 476.59999999999997 376.96000000000004Q473.67999999999995 370.32 473.67999999999995 361.36Q473.67999999999995 352.72 476.8399999999999 346.12Q479.99999999999994 339.52 486.15999999999997 335.79999999999995Q492.31999999999994 332.08 501.11999999999995 332.08Q510.15999999999997 332.08 516.88 335.44L514.0 341.52Q511.35999999999996 340.32 508.11999999999995 339.36Q504.87999999999994 338.4 501.03999999999996 338.4Z M570.8 390.0H563.5999999999999V363.36H534.3199999999999V390.0H527.1199999999999V332.88H534.3199999999999V357.04H563.5999999999999V332.88H570.8Z M618.3199999999998 390.0H586.3999999999999V332.88H618.3199999999998V339.2H593.5999999999999V357.04H616.8799999999999V363.28H593.5999999999999V383.68H618.3199999999998Z M656.0799999999999 390.0 637.2799999999999 339.92H636.9599999999999Q637.1999999999999 342.4 637.3599999999999 346.6Q637.5199999999999 350.8 637.5199999999999 355.36V390.0H630.8799999999999V332.88H641.5199999999999L659.1199999999999 379.68H659.4399999999999L677.3599999999999 332.88H687.9199999999998V390.0H680.7999999999998V354.88Q680.7999999999998 350.72 680.9999999999999 346.64Q681.1999999999999 342.56 681.3599999999999 340.0H681.0399999999998L661.9999999999999 390.0Z M719.5199999999999 390.0H698.8799999999999V385.84L705.5999999999998 384.32V338.64L698.8799999999999 337.04V332.88H719.5199999999999V337.04L712.7999999999998 338.64V384.32L719.5199999999999 385.84Z M762.9599999999998 374.72Q762.9599999999998 382.32 757.4399999999998 386.56Q751.9199999999998 390.8 742.5599999999998 390.8Q737.7599999999999 390.8 733.6799999999998 390.08000000000004Q729.5999999999998 389.36 726.8799999999999 388.08V381.2Q729.7599999999999 382.48 734.0399999999998 383.52Q738.3199999999998 384.56 742.8799999999999 384.56Q749.2799999999999 384.56 752.5199999999999 382.08000000000004Q755.7599999999999 379.6 755.7599999999999 375.36Q755.7599999999999 372.56 754.56 370.64Q753.3599999999999 368.72 750.4399999999998 367.08000000000004Q747.5199999999999 365.44 742.3199999999998 363.6Q735.0399999999998 360.96 731.3199999999998 357.12Q727.5999999999998 353.28 727.5999999999998 346.64Q727.5999999999998 342.08 729.9199999999998 338.84000000000003Q732.2399999999999 335.6 736.3599999999999 333.84000000000003Q740.4799999999998 332.08 745.8399999999998 332.08Q750.5599999999998 332.08 754.4799999999998 332.96Q758.3999999999999 333.84 761.5999999999998 335.28L759.3599999999999 341.44Q756.3999999999999 340.15999999999997 752.9199999999998 339.28Q749.4399999999998 338.4 745.6799999999998 338.4Q740.3199999999998 338.4 737.5999999999999 340.67999999999995Q734.8799999999999 342.96 734.8799999999999 346.72Q734.8799999999999 349.6 736.0799999999999 351.52Q737.2799999999999 353.44 739.9999999999998 354.96000000000004Q742.7199999999998 356.48 747.3599999999999 358.24Q752.3999999999999 360.08 755.8799999999999 362.2Q759.3599999999999 364.32 761.1599999999999 367.28Q762.9599999999998 370.24 762.9599999999998 374.72Z M792.5599999999998 390.0H785.3599999999998V339.2H767.5199999999998V332.88H810.3199999999998V339.2H792.5599999999998Z"/></svg>
